# xmcd
#
# Track frame offsets:
# 150
# 11329
# 23291
# 34324
# 43883
# 54481
# 66931
# 76749
# 86885
# 100021
# 113329
# 126718
#
# Disc length: 1816 seconds
#
# Revision: 1
# Processed by: cddbd v1.5.2PL0 Copyright (c) Steve Scherf et al.
# Submitted via: CedeCatalogueitor 2.6.0.6 http://personales.ya.com/cdcatalogueitor
#
DISCID=9007160c
DTITLE=Aias - A La Piscina
DYEAR=1900
DGENRE=
TTITLE0=Tu Manes
TTITLE1=Quan Sortis Demá
TTITLE2=Món Inventat
TTITLE3=Bali
TTITLE4=Una Setmana Sencera
TTITLE5=A La Piscina
TTITLE6=La Truita
TTITLE7=Dues Pedres
TTITLE8=Aias
TTITLE9=Moto
TTITLE10=Vine Amb Mi
TTITLE11=Amunt I Avall
EXTD=
EXTT0=
EXTT1=
EXTT2=
EXTT3=
EXTT4=
EXTT5=
EXTT6=
EXTT7=
EXTT8=
EXTT9=
EXTT10=
EXTT11=
PLAYORDER=
